<?xml version="1.0" encoding="UTF-8" standalone="no"?>
<svg
   height="100"
   width="100"
   version="1.1"
   id="svg1"
   sodipodi:docname="yellow-circle.svg"
   inkscape:version="1.3 (0e150ed, 2023-07-21)"
   xmlns:inkscape="http://www.inkscape.org/namespaces/inkscape"
   xmlns:sodipodi="http://sodipodi.sourceforge.net/DTD/sodipodi-0.dtd"
   xmlns="http://www.w3.org/2000/svg"
   xmlns:svg="http://www.w3.org/2000/svg">
  <defs
     id="defs1" />
  <sodipodi:namedview
     id="namedview1"
     pagecolor="#ffffff"
     bordercolor="#000000"
     borderopacity="0.25"
     inkscape:showpageshadow="2"
     inkscape:pageopacity="0.0"
     inkscape:pagecheckerboard="0"
     inkscape:deskcolor="#d1d1d1"
     inkscape:zoom="3.7920149"
     inkscape:cx="50.369"
     inkscape:cy="61.049338"
     inkscape:window-width="1392"
     inkscape:window-height="1052"
     inkscape:window-x="0"
     inkscape:window-y="800"
     inkscape:window-maximized="0"
     inkscape:current-layer="svg1" />
  <circle
     cx="50"
     cy="50"
     r="40"
     fill="#fef011"
     id="circle1" />
  <path
     d="m 48.181249,34.524336 c 2.985885,0 5.237671,0.878249 6.755359,2.634746 1.517687,1.738007 2.276531,4.539158 2.276531,8.403451 v 19.91313 H 53.154975 V 45.784406 c 0,-2.459096 -0.478402,-4.298795 -1.435205,-5.519098 -0.940306,-1.238793 -2.342517,-1.858189 -4.206633,-1.858189 -2.62296,0 -4.528318,0.850514 -5.716073,2.551543 -1.187756,1.701029 -1.781633,4.206348 -1.781633,7.515958 V 65.475663 H 35.932522 V 45.784406 c 0,-1.64556 -0.214456,-3.013779 -0.643368,-4.104656 -0.412415,-1.090877 -1.039286,-1.904412 -1.880612,-2.440606 -0.82483,-0.554683 -1.872364,-0.832025 -3.142604,-0.832025 -1.798128,0 -3.241582,0.416012 -4.330358,1.248037 -1.088775,0.832025 -1.880612,2.070818 -2.37551,3.716378 -0.478402,1.627071 -0.717603,3.633175 -0.717603,6.018314 V 65.475663 H 18.734813 V 35.079019 h 3.315817 l 0.618623,4.298796 h 0.222704 c 0.544388,-1.053899 1.228997,-1.941392 2.053827,-2.66248 0.82483,-0.721088 1.74864,-1.266527 2.77143,-1.636316 1.022789,-0.369789 2.111565,-0.554683 3.266327,-0.554683 2.062075,0 3.78597,0.434502 5.171685,1.303506 1.402211,0.850514 2.416752,2.15402 3.043623,3.910517 h 0.222704 c 0.890817,-1.756497 2.111565,-3.060003 3.662246,-3.910517 1.55068,-0.869004 3.249831,-1.303506 5.09745,-1.303506 z m 29.792863,0 c 0.544391,0 1.113524,0.03698 1.707398,0.110937 0.59388,0.05547 1.121771,0.138671 1.583677,0.249607 l -0.519645,4.271061 c -0.445406,-0.129426 -0.940305,-0.231118 -1.484695,-0.305076 -0.544387,-0.07396 -1.055781,-0.110936 -1.534185,-0.110936 -1.088773,0 -2.119812,0.249607 -3.093109,0.748822 -0.956805,0.480726 -1.798129,1.183325 -2.523981,2.107797 -0.725851,0.905982 -1.294984,2.006104 -1.707398,3.300365 -0.412415,1.275772 -0.618622,2.699459 -0.618622,4.271061 V 65.475663 H 65.651154 V 35.079019 h 3.414792 l 0.44541,5.602301 c 0.244853,-1.367257 1.329482,-2.114103 2.202298,-3.078492 0.791836,-0.942961 1.707398,-1.691784 2.746684,-2.246467 1.055781,-0.554683 2.227039,-0.832025 3.513774,-0.832025 z"
     id="text1"
     inkscape:label="MR"
     aria-label="mr"
     sodipodi:nodetypes="scsccscsssccsccsscsccccccsssccccsscccsscccscccccccs" />
</svg>
