<?xml version="1.0" encoding="UTF-8" standalone="no"?>
<!-- Created with Inkscape (http://www.inkscape.org/) -->

<svg
   width="395mm"
   height="75mm"
   viewBox="0 0 395 75"
   version="1.1"
   id="svg1"
   xml:space="preserve"
   inkscape:version="1.3 (0e150ed, 2023-07-21)"
   sodipodi:docname="logo-inline-stockos-white.svg"
   xmlns:inkscape="http://www.inkscape.org/namespaces/inkscape"
   xmlns:sodipodi="http://sodipodi.sourceforge.net/DTD/sodipodi-0.dtd"
   xmlns="http://www.w3.org/2000/svg"
   xmlns:svg="http://www.w3.org/2000/svg"><sodipodi:namedview
     id="namedview1"
     pagecolor="#ffffff"
     bordercolor="#000000"
     borderopacity="0.25"
     inkscape:showpageshadow="2"
     inkscape:pageopacity="0.0"
     inkscape:pagecheckerboard="0"
     inkscape:deskcolor="#d1d1d1"
     inkscape:document-units="mm"
     inkscape:zoom="0.34614535"
     inkscape:cx="1032.8031"
     inkscape:cy="-62.112635"
     inkscape:window-width="1280"
     inkscape:window-height="772"
     inkscape:window-x="1306"
     inkscape:window-y="0"
     inkscape:window-maximized="0"
     inkscape:current-layer="layer1" /><defs
     id="defs1"><rect
       x="96.708885"
       y="343.55322"
       width="624.21185"
       height="279.98236"
       id="rect1" /></defs><g
     inkscape:label="Canvas"
     inkscape:groupmode="layer"
     id="layer1"><path
       d="m 70.634763,0 c 7.162404,0 12.563886,2.1067024 16.204446,6.3201071 3.640559,4.1690529 5.460838,10.8883249 5.460838,20.1578149 V 74.244627 H 82.565509 V 27.010142 c 0,-5.898767 -1.147568,-10.311754 -3.442703,-13.238961 -2.255564,-2.971559 -5.619124,-4.457339 -10.09068,-4.457339 -6.291836,0 -10.862321,2.040175 -13.711454,6.120525 -2.849134,4.08035 -4.2737,10.089995 -4.2737,18.028937 V 74.244627 H 41.253076 V 27.010142 c 0,-3.947295 -0.514427,-7.229316 -1.543281,-9.846062 -0.989282,-2.616746 -2.492991,-4.568217 -4.511127,-5.854415 -1.978565,-1.3305485 -4.491342,-1.995823 -7.538332,-1.995823 -4.313271,0 -7.77576,0.997912 -10.387465,2.993735 -2.611706,1.995823 -4.511128,4.967382 -5.698267,8.914677 -1.147567,3.902944 -1.7213514,8.715095 -1.7213514,14.436456 V 74.244627 H 0 V 1.3305489 H 7.9538304 L 9.437754,11.642303 H 9.9719665 C 11.27782,9.1142597 12.920028,6.9853815 14.898593,5.255668 16.877158,3.5259545 19.09315,2.2175814 21.546571,1.3305489 23.999991,0.44351629 26.611697,0 29.381687,0 c 4.946412,0 9.081613,1.0422633 12.405601,3.1267898 3.363561,2.0401749 5.797195,5.1669648 7.300905,9.3803692 h 0.534212 C 51.759255,8.2937546 54.687531,5.1669647 58.407233,3.1267898 62.126934,1.0422633 66.202778,0 70.634763,0 Z m 71.465757,0 c 1.30586,0 2.67107,0.08870326 4.09563,0.26610977 1.42457,0.13305489 2.69085,0.33263722 3.79885,0.59874699 L 148.7485,11.110083 c -1.06842,-0.310461 -2.25556,-0.554395 -3.56142,-0.731802 -1.30585,-0.177406 -2.53256,-0.26611 -3.68013,-0.26611 -2.6117,0 -5.08491,0.598747 -7.41961,1.796241 -2.29514,1.153143 -4.31327,2.838505 -6.05441,5.056086 -1.74114,2.17323 -3.10635,4.812152 -4.09563,7.916766 -0.98928,3.060262 -1.48392,6.475338 -1.48392,10.245226 v 39.118137 h -9.91261 V 1.3305489 h 8.19125 l 1.06843,13.4385431 c 0.58734,-3.279714 3.1891,-5.0712145 5.28277,-7.3845458 1.89942,-2.2619331 4.09563,-4.058174 6.58862,-5.3887229 C 136.2044,0.66527443 139.01396,0 142.10052,0 Z"
       id="text1"
       style="font-size:192px;line-height:0.1;font-family:'Open Sans';-inkscape-font-specification:'Open Sans';letter-spacing:0px;word-spacing:0px;white-space:pre;stroke-width:0.670293;fill:#e6e6e6;fill-opacity:1"
       inkscape:label="MR"
       aria-label="mr"
       sodipodi:nodetypes="scsccscsssccsccsscsccccccsssccccsscccsscccscccccccs" /><g
       id="g5"
       transform="matrix(1.5077884,0,0,1.5077797,132.92635,-223.09742)"
       inkscape:label="Circles"><circle
         style="fill:#fef011;fill-opacity:1;stroke-width:0.257207"
         id="path2"
         cx="35.662289"
         cy="183.58354"
         r="14.089623"
         inkscape:label="circle1" /><circle
         style="fill:#e5e6e8;fill-opacity:1;stroke-width:0.257207"
         id="circle2"
         cx="66.56208"
         cy="183.58354"
         r="14.089623" /><circle
         style="fill:#bdbec0;fill-opacity:1;stroke-width:0.257207"
         id="circle3"
         cx="97.461868"
         cy="183.58354"
         r="14.089623" /><circle
         style="fill:#88898a;fill-opacity:1;stroke-width:0.257207"
         id="circle4"
         cx="128.36165"
         cy="183.58354"
         r="14.089623" /><circle
         style="fill:#000000;fill-opacity:1;stroke-width:0.257207"
         id="circle5"
         cx="159.26144"
         cy="183.58354"
         r="14.089623" /></g><path
       style="font-size:14.1111px;line-height:0.1;font-family:Posterama1927W04-Light;-inkscape-font-specification:Posterama1927W04-Light;letter-spacing:9.30643px;word-spacing:0px;white-space:pre;inline-size:121.956;display:none;opacity:1;fill:#e6e6e6;fill-opacity:1;stroke-width:0.611508"
       d="m 183.40652,1.761156 q 0,0.377436 -0.16909,0.503262 -0.13533,0.125719 -0.50726,0.125719 h -6.86482 q -0.33819,0 -0.33819,0.314533 v 19.060841 q 0,0.377436 -0.16905,0.503239 -0.13533,0.125933 -0.50725,0.125933 h -0.84545 q -0.37198,0 -0.54106,-0.125933 -0.13533,-0.125719 -0.13533,-0.503239 V 2.70467 q 0,-0.314533 -0.33816,-0.314533 h -6.86484 q -0.37198,0 -0.54106,-0.125719 -0.13533,-0.125932 -0.13533,-0.503262 V 1.006264 q 0,-0.377434 0.13533,-0.503262 0.16906,-0.125719 0.54106,-0.125719 h 16.60409 q 0.37199,0 0.50726,0.125719 0.16909,0.125933 0.16909,0.503262 z m 28.1867,20.004442 q 0,0.377435 -0.16906,0.503239 -0.13534,0.125933 -0.50726,0.125933 h -0.84543 q -0.37198,0 -0.54106,-0.125933 -0.13533,-0.125719 -0.13533,-0.503239 V 1.006264 q 0,-0.377434 0.13533,-0.503262 0.16906,-0.125719 0.54106,-0.125719 h 0.84543 q 0.37199,0 0.50726,0.125719 0.16906,0.125933 0.16906,0.503262 z m 41.47672,-1.38396 q 0.37198,0 0.50725,0.125719 0.1692,0.125933 0.1692,0.503262 v 0.754892 q 0,0.377436 -0.1692,0.503239 -0.13518,0.125933 -0.50725,0.125933 H 240.9297 q -0.37202,0 -0.54108,-0.125933 -0.13518,-0.125719 -0.13518,-0.503239 V 1.006174 q 0,-0.377434 0.13518,-0.50326 0.16895,-0.125719 0.54108,-0.125719 h 12.10643 q 0.37197,0 0.50725,0.125719 0.16896,0.125932 0.16896,0.50326 v 0.754894 q 0,0.377434 -0.16896,0.503262 -0.13548,0.125719 -0.50725,0.125719 h -10.24651 q -0.33818,0 -0.33818,0.314534 v 7.297227 q 0,0.314533 0.33818,0.314533 h 9.09673 q 0.372,0 0.50725,0.125719 0.16919,0.125932 0.16919,0.503262 v 0.723419 q 0,0.377458 -0.16919,0.503262 -0.13518,0.125933 -0.50725,0.125933 h -9.09673 q -0.33818,0 -0.33818,0.314534 v 7.454483 q 0,0.314532 0.33818,0.314532 z M 297.59015,1.006264 q 0,-0.377434 0.13518,-0.503262 0.16919,-0.125719 0.54106,-0.125719 h 0.84545 q 0.37198,0 0.50725,0.125719 0.16896,0.125933 0.16896,0.503262 v 20.759334 q 0,0.503239 -0.16896,0.723418 -0.16918,0.220225 -0.47344,0.220225 -0.27054,0 -0.54108,-0.188795 -0.23676,-0.188797 -0.71015,-0.754871 L 283.4208,4.623405 v 17.14217 q 0,0.377435 -0.1692,0.503239 -0.13518,0.125933 -0.50723,0.125933 h -0.84543 q -0.37198,0 -0.54108,-0.125933 -0.13517,-0.125719 -0.13517,-0.503239 V 1.006241 q 0,-0.503262 0.16895,-0.723418 0.16919,-0.220225 0.47345,-0.220225 0.27054,0 0.50724,0.188796 0.27052,0.188795 0.74398,0.754892 l 14.47361,17.142172 z m 30.85827,0 q 0,-0.377434 0.13518,-0.503262 0.16922,-0.125719 0.54109,-0.125719 h 6.42522 q 3.85513,0 6.72955,1.352508 2.87442,1.321033 4.43001,3.774417 1.55557,2.421911 1.55557,5.630188 0,3.396961 -1.62321,5.944698 -1.58938,2.547738 -4.56527,3.931696 -2.97588,1.383958 -6.93246,1.383958 h -6.01941 q -0.37198,0 -0.54107,-0.125932 -0.13518,-0.125719 -0.13518,-0.503239 z m 2.53627,1.383959 q -0.33817,0 -0.33817,0.314532 v 17.362351 q 0,0.314532 0.33817,0.314532 h 4.26092 q 3.34787,0 5.74888,-1.100875 2.401,-1.100877 3.68602,-3.145353 1.28506,-2.075927 1.28506,-4.875295 0,-2.673542 -1.28506,-4.655115 -1.25121,-2.013025 -3.65221,-3.1139 -2.40101,-1.100877 -5.64744,-1.100877 z m 57.4721,12.549957 q -0.10131,-0.220224 -0.23678,-0.283082 -0.10131,-0.09429 -0.372,-0.09429 h -9.73925 q -0.27054,0 -0.40583,0.09429 -0.10131,0.06286 -0.20298,0.283082 l -3.21262,6.542335 q -0.27053,0.566165 -0.50723,0.754871 -0.23677,0.157367 -0.74398,0.157367 h -0.60872 q -0.33816,0 -0.50725,-0.09429 -0.16896,-0.09429 -0.16896,-0.314555 0,-0.125719 0.16896,-0.503241 L 381.82851,1.541129 Q 382.09904,0.974965 382.30193,0.59753 382.5387,0.220073 382.67391,0.125719 382.80909,0 383.0121,0 q 0.16896,0 0.30435,0.125719 0.13518,0.09429 0.33818,0.471811 0.23676,0.377435 0.50722,0.943599 l 9.976,19.941538 q 0.16894,0.377436 0.16894,0.503241 0,0.220223 -0.16894,0.314555 -0.16919,0.09429 -0.50727,0.09429 h -0.71015 q -0.50725,0 -0.74398,-0.157367 -0.23678,-0.188795 -0.50724,-0.754871 z m -1.5894,-2.327557 q 0.1692,0 0.23677,-0.03143 0.10131,-0.03143 0.10131,-0.125933 0,-0.09429 -0.10131,-0.283081 l -4.12567,-8.366631 -4.12564,8.366631 q -0.10131,0.188795 -0.10131,0.283081 0,0.09429 0.0676,0.125933 0.10131,0.03143 0.27054,0.03143 z"
       id="text894"
       inkscape:label="Tienda"
       aria-label="TIENDA" /><g
       id="text2"
       style="font-size:30.4564px;line-height:0.1;font-family:'Open Sans';-inkscape-font-specification:'Open Sans';letter-spacing:15.3458px;word-spacing:0px;white-space:pre;inline-size:261.28;fill:#e5e5e5;stroke-width:0.158627"
       inkscape:label="StockOS"
       aria-label="STOCKOS"><path
         style="font-family:Posterama1927W04-Light;-inkscape-font-specification:Posterama1927W04-Light"
         d="m 173.18142,0.63656282 q 3.65477,0 6.66995,2.31468638 0.30456,0.2131948 0.30456,0.4263896 0,0.152282 -0.21319,0.3959332 l -0.54822,0.6700408 q -0.21319,0.304564 -0.39593,0.304564 -0.21319,0 -0.45684,-0.2131948 -1.27917,-0.913692 -2.61926,-1.4314508 -1.30962,-0.5177588 -2.80198,-0.5177588 -1.34009,0 -2.3756,0.456846 -1.03552,0.456846 -1.61419,1.3400816 -0.57867,0.8527792 -0.57867,2.0405788 0,1.1877996 0.54821,1.9492096 0.57867,0.76141 1.6751,1.2487124 1.09643,0.4873022 2.98473,0.9746052 2.34514,0.609128 3.74614,1.370538 1.40099,0.730953 2.10149,1.827384 0.7005,1.09643 0.7005,2.710619 0,1.796928 -0.97461,3.167466 -0.9746,1.370538 -2.68016,2.131948 -1.70556,0.76141 -3.86796,0.76141 -1.97967,0 -3.74614,-0.700497 -1.73602,-0.730954 -3.19792,-1.94921 -0.30457,-0.213195 -0.30457,-0.42639 0,-0.182738 0.2132,-0.426389 l 0.57867,-0.700497 q 0.21319,-0.274108 0.39593,-0.274108 0.12183,0 0.39594,0.213195 2.8629,2.314686 5.75625,2.314686 1.61419,0 2.80199,-0.487302 1.21826,-0.487303 1.85784,-1.370538 0.67004,-0.913692 0.67004,-2.131948 0,-1.126887 -0.51775,-1.827384 -0.48731,-0.730954 -1.61419,-1.248713 -1.09643,-0.548215 -3.10656,-1.065974 -2.22331,-0.578671 -3.62431,-1.248712 -1.37054,-0.670041 -2.13195,-1.7969276 -0.76141,-1.1268868 -0.76141,-2.893358 0,-1.7969276 0.88324,-3.1370092 0.91369,-1.3400816 2.43651,-2.0405788 1.52282,-0.73095358 3.41112,-0.73095358 z m 41.08139,1.64464558 q 0,0.3654768 -0.15228,0.4873024 -0.12183,0.1218256 -0.45685,0.1218256 h -6.18265 q -0.30456,0 -0.30456,0.304564 V 21.651479 q 0,0.365477 -0.15229,0.487302 -0.12182,0.121826 -0.45684,0.121826 h -0.76141 q -0.33502,0 -0.4873,-0.121826 -0.12183,-0.121825 -0.12183,-0.487302 V 3.1949004 q 0,-0.304564 -0.30456,-0.304564 h -6.18265 q -0.33502,0 -0.4873,-0.1218256 -0.12183,-0.1218256 -0.12183,-0.4873024 V 1.5502548 q 0,-0.3654768 0.12183,-0.4873024 0.15228,-0.12182558 0.4873,-0.12182558 h 14.95409 q 0.33502,0 0.45685,0.12182558 0.15228,0.1218256 0.15228,0.4873024 z m 17.32543,9.4414836 q 0,-3.076096 1.43145,-5.6039772 1.43145,-2.5583376 3.92888,-4.0202448 2.49742,-1.46190718 5.51261,-1.46190718 3.01518,0 5.45169,1.43145078 2.46697,1.4314508 3.86797,3.9288756 1.43145,2.4974248 1.43145,5.5430648 0,3.076096 -1.43145,5.603978 -1.43146,2.527881 -3.95934,3.989788 -2.49742,1.431451 -5.54306,1.431451 -2.98473,0 -5.42124,-1.400995 -2.43651,-1.43145 -3.86796,-3.898419 -1.401,-2.497425 -1.401,-5.543065 z m 2.07104,-0.06091 q 0,2.527881 1.12688,4.56846 1.15735,2.040578 3.13701,3.228378 2.01013,1.157343 4.41618,1.157343 2.40606,0 4.41618,-1.187799 2.01012,-1.1878 3.19792,-3.258835 1.1878,-2.071035 1.1878,-4.56846 0,-2.5887942 -1.1878,-4.629373 -1.15734,-2.0710352 -3.16746,-3.2283784 -1.97967,-1.1573432 -4.38573,-1.1573432 -2.40605,0 -4.41617,1.1877996 -2.01013,1.1573432 -3.16747,3.2283784 -1.15734,2.0710352 -1.15734,4.6598296 z m 48.63463,8.954181 q 1.91875,0 3.5634,-0.609128 1.6751,-0.639584 3.04564,-1.796927 0.30456,-0.243652 0.4873,-0.243652 0.2132,0 0.39594,0.274108 l 0.45684,0.609128 q 0.15228,0.243651 0.15228,0.365477 0,0.213195 -0.30456,0.487302 -1.61419,1.370538 -3.65477,2.131948 -2.01012,0.730954 -4.23344,0.730954 -2.8629,0 -5.29941,-1.400995 -2.43651,-1.400994 -3.86796,-3.898419 -1.43146,-2.497425 -1.43146,-5.603977 0,-3.1065532 1.43146,-5.603978 1.43145,-2.5278812 3.89841,-3.959332 2.46697,-1.46190718 5.4517,-1.46190718 2.1624,0 4.14207,0.76140998 1.97967,0.76141 3.53294,2.0405788 0.27411,0.2131948 0.27411,0.4263896 0,0.152282 -0.18274,0.4263896 l -0.45684,0.5786716 q -0.24366,0.304564 -0.42639,0.304564 -0.0914,0 -0.2132,-0.060913 -0.12182,-0.091369 -0.27411,-0.1827384 -1.37053,-1.0964304 -3.04564,-1.7055584 -1.64464,-0.6395844 -3.44157,-0.6395844 -2.3756,0 -4.35526,1.1573432 -1.94921,1.1573432 -3.10656,3.2283784 -1.15734,2.0405788 -1.15734,4.659829 0,2.497425 1.12689,4.56846 1.15734,2.040579 3.13701,3.228379 1.97966,1.187799 4.35526,1.187799 z m 29.17299,1.035518 q 0,0.365477 -0.15229,0.487302 -0.12182,0.121826 -0.45684,0.121826 h -0.76141 q -0.33502,0 -0.4873,-0.121826 -0.12183,-0.121825 -0.12183,-0.487302 V 1.5502548 q 0,-0.3654768 0.12183,-0.4873024 0.15228,-0.12182558 0.4873,-0.12182558 h 0.76141 q 0.33502,0 0.45684,0.12182558 0.15229,0.1218256 0.15229,0.4873024 z m 9.59376,-20.009855 q 0.39594,-0.456846 0.60913,-0.5786716 0.24365,-0.12182558 0.7005,-0.12182558 h 0.88323 q 0.54822,0 0.54822,0.27410758 0,0.1218256 -0.24365,0.4263896 l -8.8019,9.867874 8.95418,9.989699 q 0.27411,0.274107 0.27411,0.487302 0,0.274108 -0.57868,0.274108 h -1.00506 q -0.45684,0 -0.70049,-0.121826 -0.24365,-0.152282 -0.60913,-0.548215 l -8.40597,-9.502397 q -0.27411,-0.274107 -0.27411,-0.517759 0,-0.243651 0.30457,-0.548215 z"
         id="path3" /><path
         style="font-weight:300;font-family:Posterama1927W04-Light;-inkscape-font-specification:'Posterama1927W04-Light Light';fill:#fef011"
         d="m 341.15765,11.722692 q 0,-3.076096 1.43145,-5.6039772 1.43145,-2.5583376 3.92887,-4.0202448 2.49743,-1.46190718 5.51261,-1.46190718 3.01519,0 5.4517,1.43145078 2.46697,1.4314508 3.86796,3.9288756 1.43145,2.4974248 1.43145,5.5430648 0,3.076096 -1.43145,5.603978 -1.43145,2.527881 -3.95933,3.989788 -2.49743,1.431451 -5.54307,1.431451 -2.98472,0 -5.42124,-1.400995 -2.43651,-1.43145 -3.86796,-3.898419 -1.40099,-2.497425 -1.40099,-5.543065 z m 2.07103,-0.06091 q 0,2.527881 1.12689,4.56846 1.15734,2.040578 3.13701,3.228378 2.01012,1.157343 4.41618,1.157343 2.40605,0 4.41617,-1.187799 2.01013,-1.1878 3.19793,-3.258835 1.1878,-2.071035 1.1878,-4.56846 0,-2.5887942 -1.1878,-4.629373 -1.15735,-2.0710352 -3.16747,-3.2283784 -1.97967,-1.1573432 -4.38572,-1.1573432 -2.40606,0 -4.41618,1.1877996 -2.01012,1.1573432 -3.16746,3.2283784 -1.15735,2.0710352 -1.15735,4.6598296 z m 44.6753,-11.02521718 q 3.65477,0 6.66996,2.31468638 0.30456,0.2131948 0.30456,0.4263896 0,0.152282 -0.2132,0.3959332 l -0.54821,0.6700408 q -0.2132,0.304564 -0.39593,0.304564 -0.2132,0 -0.45685,-0.2131948 -1.27917,-0.913692 -2.61925,-1.4314508 -1.30963,-0.5177588 -2.80199,-0.5177588 -1.34008,0 -2.3756,0.456846 -1.03552,0.456846 -1.61419,1.3400816 -0.57867,0.8527792 -0.57867,2.0405788 0,1.1877996 0.54822,1.9492096 0.57867,0.76141 1.6751,1.2487124 1.09643,0.4873022 2.98473,0.9746052 2.34514,0.609128 3.74613,1.370538 1.401,0.730953 2.10149,1.827384 0.7005,1.09643 0.7005,2.710619 0,1.796928 -0.9746,3.167466 -0.97461,1.370538 -2.68017,2.131948 -1.70556,0.76141 -3.86796,0.76141 -1.97967,0 -3.74614,-0.700497 -1.73601,-0.730954 -3.19792,-1.94921 -0.30456,-0.213195 -0.30456,-0.42639 0,-0.182738 0.21319,-0.426389 l 0.57867,-0.700497 q 0.2132,-0.274108 0.39594,-0.274108 0.12182,0 0.39593,0.213195 2.8629,2.314686 5.75626,2.314686 1.61419,0 2.80199,-0.487302 1.21825,-0.487303 1.85784,-1.370538 0.67004,-0.913692 0.67004,-2.131948 0,-1.126887 -0.51776,-1.827384 -0.4873,-0.730954 -1.61419,-1.248713 -1.09643,-0.548215 -3.10655,-1.065974 -2.22332,-0.578671 -3.62431,-1.248712 -1.37054,-0.670041 -2.13195,-1.7969276 -0.76141,-1.1268868 -0.76141,-2.893358 0,-1.7969276 0.88323,-3.1370092 0.9137,-1.3400816 2.43652,-2.0405788 1.52282,-0.73095358 3.41111,-0.73095358 z"
         id="path4" /></g></g></svg>
