<?xml version="1.0" encoding="UTF-8" standalone="no"?>
<!-- Created with Inkscape (http://www.inkscape.org/) -->

<svg
   width="150mm"
   height="150mm"
   viewBox="0 0 150 150"
   version="1.1"
   id="svg1"
   xml:space="preserve"
   inkscape:version="1.3 (0e150ed, 2023-07-21)"
   sodipodi:docname="mundoregalo.svg"
   xmlns:inkscape="http://www.inkscape.org/namespaces/inkscape"
   xmlns:sodipodi="http://sodipodi.sourceforge.net/DTD/sodipodi-0.dtd"
   xmlns="http://www.w3.org/2000/svg"
   xmlns:svg="http://www.w3.org/2000/svg"><sodipodi:namedview
     id="namedview1"
     pagecolor="#ffffff"
     bordercolor="#000000"
     borderopacity="0.25"
     inkscape:showpageshadow="2"
     inkscape:pageopacity="0.0"
     inkscape:pagecheckerboard="0"
     inkscape:deskcolor="#d1d1d1"
     inkscape:document-units="mm"
     inkscape:zoom="0.81204284"
     inkscape:cx="-51.721409"
     inkscape:cy="224.74184"
     inkscape:window-width="1920"
     inkscape:window-height="1052"
     inkscape:window-x="0"
     inkscape:window-y="800"
     inkscape:window-maximized="1"
     inkscape:current-layer="layer1" /><defs
     id="defs1"><rect
       x="96.708885"
       y="343.55322"
       width="624.21185"
       height="279.98236"
       id="rect1" /></defs><g
     inkscape:label="Canvas"
     inkscape:groupmode="layer"
     id="layer1"><path
       d="m 224.67773,303.22261 c 11.3125,0 19.84375,2.96875 25.59375,8.90625 5.75,5.875 8.625,15.34375 8.625,28.40625 v 67.3125 h -15.375 v -66.5625 c 0,-8.3125 -1.8125,-14.53125 -5.4375,-18.65625 -3.5625,-4.1875 -8.875,-6.28125 -15.9375,-6.28125 -9.9375,0 -17.15625,2.875 -21.65625,8.625 -4.5,5.75 -6.75,14.21875 -6.75,25.40625 v 57.46875 h -15.46875 v -66.5625 c 0,-5.5625 -0.8125,-10.1875 -2.4375,-13.875 -1.5625,-3.6875 -3.9375,-6.4375 -7.125,-8.25 -3.125,-1.875 -7.09375,-2.8125 -11.90625,-2.8125 -6.8125,0 -12.28125,1.40625 -16.40625,4.21875 -4.125,2.8125 -7.125,7 -9,12.5625 -1.8125,5.5 -2.71875,12.28125 -2.71875,20.34375 v 54.375 h -15.5625 v -102.75 h 12.5625 l 2.34375,14.53125 h 0.84375 c 2.0625,-3.5625 4.65625,-6.5625 7.78125,-9 3.125,-2.4375 6.625,-4.28125 10.5,-5.53125 3.875,-1.25 8,-1.875 12.375,-1.875 7.8125,0 14.34375,1.46875 19.59375,4.40625 5.3125,2.875 9.15625,7.28125 11.53125,13.21875 h 0.84375 c 3.375,-5.9375 8,-10.34375 13.875,-13.21875 5.875,-2.9375 12.3125,-4.40625 19.3125,-4.40625 z m 112.875,0 c 2.0625,0 4.21875,0.125 6.46875,0.375 2.25,0.1875 4.25,0.46875 6,0.84375 l -1.96875,14.4375 c -1.6875,-0.4375 -3.5625,-0.78125 -5.625,-1.03125 -2.0625,-0.25 -4,-0.375 -5.8125,-0.375 -4.125,0 -8.03125,0.84375 -11.71875,2.53125 -3.625,1.625 -6.8125,4 -9.5625,7.125 -2.75,3.0625 -4.90625,6.78125 -6.46875,11.15625 -1.5625,4.3125 -2.34375,9.125 -2.34375,14.4375 v 55.125 h -15.65625 v -102.75 h 12.9375 l 1.6875,18.9375 c 0.92766,-4.62175 5.03696,-7.14632 8.34375,-10.40625 3,-3.1875 6.46875,-5.71875 10.40625,-7.59375 4,-1.875 8.4375,-2.8125 13.3125,-2.8125 z"
       id="text1"
       style="font-size:192px;line-height:0.1;font-family:'Open Sans';-inkscape-font-specification:'Open Sans';letter-spacing:0px;word-spacing:0px;white-space:pre"
       inkscape:label="MR"
       transform="matrix(0.63314073,0,0,0.70962606,-71.615358,-205.17466)"
       aria-label="mr"
       sodipodi:nodetypes="scsccscsssccsccsscsccccccsssccccsscccsscccscccccccs" /><g
       id="g5"
       transform="matrix(0.98824992,0,0,0.98824423,-21.316681,-77.965321)"
       inkscape:label="Circles"><circle
         style="fill:#fef011;fill-opacity:1;stroke-width:0.257207"
         id="path2"
         cx="35.662289"
         cy="183.58354"
         r="14.089623"
         inkscape:label="circle1" /><circle
         style="fill:#e5e6e8;fill-opacity:1;stroke-width:0.257207"
         id="circle2"
         cx="66.56208"
         cy="183.58354"
         r="14.089623" /><circle
         style="fill:#bdbec0;fill-opacity:1;stroke-width:0.257207"
         id="circle3"
         cx="97.461868"
         cy="183.58354"
         r="14.089623" /><circle
         style="fill:#88898a;fill-opacity:1;stroke-width:0.257207"
         id="circle4"
         cx="128.36165"
         cy="183.58354"
         r="14.089623" /><circle
         style="fill:#000000;fill-opacity:1;stroke-width:0.257207"
         id="circle5"
         cx="159.26144"
         cy="183.58354"
         r="14.089623" /></g><path
       style="font-size:14.1111px;line-height:0.1;font-family:Posterama1927W04-Light;-inkscape-font-specification:Posterama1927W04-Light;letter-spacing:9.30643px;word-spacing:0px;white-space:pre;inline-size:121.956;stroke-width:0.264583"
       d="m 81.782786,221.38901 q 0,0.16933 -0.07056,0.22578 -0.05644,0.0564 -0.211666,0.0564 H 78.63601 q -0.141111,0 -0.141111,0.14111 v 8.55133 q 0,0.16933 -0.07055,0.22577 -0.05645,0.0565 -0.211667,0.0565 H 77.8599 q -0.155222,0 -0.225778,-0.0565 -0.05644,-0.0564 -0.05644,-0.22577 v -8.55133 q 0,-0.14111 -0.141111,-0.14111 h -2.864553 q -0.155223,0 -0.225778,-0.0564 -0.05644,-0.0565 -0.05644,-0.22578 v -0.33867 q 0,-0.16933 0.05644,-0.22578 0.07055,-0.0564 0.225778,-0.0564 h 6.92855 q 0.155222,0 0.211666,0.0564 0.07056,0.0565 0.07056,0.22578 z m 11.761746,8.97466 q 0,0.16933 -0.07055,0.22577 -0.05645,0.0565 -0.211667,0.0565 h -0.352777 q -0.155223,0 -0.225778,-0.0565 -0.05645,-0.0564 -0.05645,-0.22577 v -9.31333 q 0,-0.16933 0.05645,-0.22578 0.07055,-0.0564 0.225778,-0.0564 h 0.352777 q 0.155222,0 0.211667,0.0564 0.07055,0.0565 0.07055,0.22578 z m 17.307398,-0.62089 q 0.15522,0 0.21167,0.0564 0.0706,0.0565 0.0706,0.22578 v 0.33867 q 0,0.16933 -0.0706,0.22577 -0.0564,0.0565 -0.21167,0.0565 h -5.06588 q -0.15523,0 -0.22578,-0.0565 -0.0564,-0.0564 -0.0564,-0.22577 v -9.31333 q 0,-0.16933 0.0564,-0.22578 0.0705,-0.0564 0.22578,-0.0564 h 5.05177 q 0.15522,0 0.21167,0.0564 0.0705,0.0565 0.0705,0.22578 v 0.33867 q 0,0.16933 -0.0705,0.22578 -0.0565,0.0564 -0.21167,0.0564 h -4.27566 q -0.14111,0 -0.14111,0.14111 v 3.27378 q 0,0.14111 0.14111,0.14111 h 3.79588 q 0.15523,0 0.21167,0.0564 0.0706,0.0565 0.0706,0.22578 v 0.32455 q 0,0.16934 -0.0706,0.22578 -0.0564,0.0565 -0.21167,0.0565 h -3.79588 q -0.14111,0 -0.14111,0.14111 v 3.34433 q 0,0.14111 0.14111,0.14111 z m 18.5774,-8.69244 q 0,-0.16933 0.0564,-0.22578 0.0706,-0.0564 0.22578,-0.0564 h 0.35278 q 0.15522,0 0.21167,0.0564 0.0705,0.0565 0.0705,0.22578 v 9.31333 q 0,0.22577 -0.0705,0.32455 -0.0706,0.0988 -0.19756,0.0988 -0.11289,0 -0.22578,-0.0847 -0.0988,-0.0847 -0.29633,-0.33866 l -6.03955,-7.69055 v 7.69055 q 0,0.16933 -0.0706,0.22577 -0.0564,0.0565 -0.21166,0.0565 h -0.35278 q -0.15522,0 -0.22578,-0.0565 -0.0564,-0.0564 -0.0564,-0.22577 v -9.31333 q 0,-0.22578 0.0705,-0.32455 0.0706,-0.0988 0.19756,-0.0988 0.11289,0 0.21166,0.0847 0.11289,0.0847 0.31045,0.33867 l 6.03955,7.69055 z m 12.87653,0 q 0,-0.16933 0.0564,-0.22578 0.0706,-0.0564 0.22578,-0.0564 h 2.68111 q 1.60867,0 2.80811,0.60678 1.19944,0.59266 1.84855,1.69333 0.64911,1.08655 0.64911,2.52589 0,1.52399 -0.67733,2.66699 -0.66322,1.143 -1.905,1.76389 -1.24177,0.62089 -2.89277,0.62089 h -2.51178 q -0.15522,0 -0.22578,-0.0565 -0.0564,-0.0564 -0.0564,-0.22577 z m 1.05833,0.62089 q -0.14111,0 -0.14111,0.14111 v 7.78933 q 0,0.14111 0.14111,0.14111 h 1.778 q 1.397,0 2.39889,-0.49389 1.00189,-0.49389 1.53811,-1.41111 0.53622,-0.93133 0.53622,-2.18722 0,-1.19944 -0.53622,-2.08844 -0.52211,-0.90311 -1.524,-1.397 -1.00189,-0.49389 -2.35656,-0.49389 z m 23.98195,5.63033 q -0.0423,-0.0988 -0.0988,-0.127 -0.0423,-0.0423 -0.15523,-0.0423 h -4.06399 q -0.11289,0 -0.16934,0.0423 -0.0423,0.0282 -0.0847,0.127 l -1.34056,2.93511 q -0.11289,0.254 -0.21166,0.33866 -0.0988,0.0706 -0.31045,0.0706 h -0.254 q -0.14111,0 -0.21167,-0.0423 -0.0705,-0.0423 -0.0705,-0.14112 0,-0.0564 0.0705,-0.22577 l 4.13456,-8.94644 q 0.11289,-0.254 0.19755,-0.42333 0.0988,-0.16934 0.15522,-0.21167 0.0564,-0.0564 0.14112,-0.0564 0.0705,0 0.127,0.0564 0.0564,0.0423 0.14111,0.21167 0.0988,0.16933 0.21166,0.42333 l 4.16278,8.94644 q 0.0705,0.16933 0.0705,0.22577 0,0.0988 -0.0705,0.14112 -0.0706,0.0423 -0.21167,0.0423 h -0.29633 q -0.21167,0 -0.31045,-0.0706 -0.0988,-0.0847 -0.21166,-0.33866 z m -0.66322,-1.04422 q 0.0706,0 0.0988,-0.0141 0.0423,-0.0141 0.0423,-0.0565 0,-0.0423 -0.0423,-0.127 l -1.72156,-3.75355 -1.72155,3.75355 q -0.0423,0.0847 -0.0423,0.127 0,0.0423 0.0282,0.0565 0.0423,0.0141 0.11289,0.0141 z"
       id="text894"
       inkscape:label="Tienda"
       transform="matrix(1.5707206,0,0,1.4609482,-116.68851,-199.60784)"
       aria-label="TIENDA" /></g></svg>
