<?xml version="1.0" encoding="UTF-8" standalone="no"?>
<!-- Created with Inkscape (http://www.inkscape.org/) -->

<svg
   width="395mm"
   height="75mm"
   viewBox="0 0 395 75"
   version="1.1"
   id="svg1"
   xml:space="preserve"
   inkscape:version="1.3 (0e150ed, 2023-07-21)"
   sodipodi:docname="mundoregalo-inline.svg"
   xmlns:inkscape="http://www.inkscape.org/namespaces/inkscape"
   xmlns:sodipodi="http://sodipodi.sourceforge.net/DTD/sodipodi-0.dtd"
   xmlns="http://www.w3.org/2000/svg"
   xmlns:svg="http://www.w3.org/2000/svg"><sodipodi:namedview
     id="namedview1"
     pagecolor="#ffffff"
     bordercolor="#000000"
     borderopacity="0.25"
     inkscape:showpageshadow="2"
     inkscape:pageopacity="0.0"
     inkscape:pagecheckerboard="0"
     inkscape:deskcolor="#d1d1d1"
     inkscape:document-units="mm"
     inkscape:zoom="0.30572091"
     inkscape:cx="418.68252"
     inkscape:cy="704.89127"
     inkscape:window-width="1920"
     inkscape:window-height="1052"
     inkscape:window-x="0"
     inkscape:window-y="800"
     inkscape:window-maximized="1"
     inkscape:current-layer="layer1" /><defs
     id="defs1"><rect
       x="96.708885"
       y="343.55322"
       width="624.21185"
       height="279.98236"
       id="rect1" /></defs><g
     inkscape:label="Canvas"
     inkscape:groupmode="layer"
     id="layer1"><path
       d="m 70.634763,0 c 7.162404,0 12.563886,2.1067024 16.204446,6.3201071 3.640559,4.1690529 5.460838,10.8883249 5.460838,20.1578149 V 74.244627 H 82.565509 V 27.010142 c 0,-5.898767 -1.147568,-10.311754 -3.442703,-13.238961 -2.255564,-2.971559 -5.619124,-4.457339 -10.09068,-4.457339 -6.291836,0 -10.862321,2.040175 -13.711454,6.120525 -2.849134,4.08035 -4.2737,10.089995 -4.2737,18.028937 V 74.244627 H 41.253076 V 27.010142 c 0,-3.947295 -0.514427,-7.229316 -1.543281,-9.846062 -0.989282,-2.616746 -2.492991,-4.568217 -4.511127,-5.854415 -1.978565,-1.3305485 -4.491342,-1.995823 -7.538332,-1.995823 -4.313271,0 -7.77576,0.997912 -10.387465,2.993735 -2.611706,1.995823 -4.511128,4.967382 -5.698267,8.914677 -1.147567,3.902944 -1.7213514,8.715095 -1.7213514,14.436456 V 74.244627 H 0 V 1.3305489 H 7.9538304 L 9.437754,11.642303 H 9.9719665 C 11.27782,9.1142597 12.920028,6.9853815 14.898593,5.255668 16.877158,3.5259545 19.09315,2.2175814 21.546571,1.3305489 23.999991,0.44351629 26.611697,0 29.381687,0 c 4.946412,0 9.081613,1.0422633 12.405601,3.1267898 3.363561,2.0401749 5.797195,5.1669648 7.300905,9.3803692 h 0.534212 C 51.759255,8.2937546 54.687531,5.1669647 58.407233,3.1267898 62.126934,1.0422633 66.202778,0 70.634763,0 Z m 71.465757,0 c 1.30586,0 2.67107,0.08870326 4.09563,0.26610977 1.42457,0.13305489 2.69085,0.33263722 3.79885,0.59874699 L 148.7485,11.110083 c -1.06842,-0.310461 -2.25556,-0.554395 -3.56142,-0.731802 -1.30585,-0.177406 -2.53256,-0.26611 -3.68013,-0.26611 -2.6117,0 -5.08491,0.598747 -7.41961,1.796241 -2.29514,1.153143 -4.31327,2.838505 -6.05441,5.056086 -1.74114,2.17323 -3.10635,4.812152 -4.09563,7.916766 -0.98928,3.060262 -1.48392,6.475338 -1.48392,10.245226 v 39.118137 h -9.91261 V 1.3305489 h 8.19125 l 1.06843,13.4385431 c 0.58734,-3.279714 3.1891,-5.0712145 5.28277,-7.3845458 1.89942,-2.2619331 4.09563,-4.058174 6.58862,-5.3887229 C 136.2044,0.66527443 139.01396,0 142.10052,0 Z"
       id="text1"
       style="font-size:192px;line-height:0.1;font-family:'Open Sans';-inkscape-font-specification:'Open Sans';letter-spacing:0px;word-spacing:0px;white-space:pre;stroke-width:0.670293;fill:#e6e6e6;fill-opacity:1"
       inkscape:label="MR"
       aria-label="mr"
       sodipodi:nodetypes="scsccscsssccsccsscsccccccsssccccsscccsscccscccccccs" /><g
       id="g5"
       transform="matrix(1.5077884,0,0,1.5077797,132.92635,-223.09742)"
       inkscape:label="Circles"><circle
         style="fill:#fef011;fill-opacity:1;stroke-width:0.257207"
         id="path2"
         cx="35.662289"
         cy="183.58354"
         r="14.089623"
         inkscape:label="circle1" /><circle
         style="fill:#e5e6e8;fill-opacity:1;stroke-width:0.257207"
         id="circle2"
         cx="66.56208"
         cy="183.58354"
         r="14.089623" /><circle
         style="fill:#bdbec0;fill-opacity:1;stroke-width:0.257207"
         id="circle3"
         cx="97.461868"
         cy="183.58354"
         r="14.089623" /><circle
         style="fill:#88898a;fill-opacity:1;stroke-width:0.257207"
         id="circle4"
         cx="128.36165"
         cy="183.58354"
         r="14.089623" /><circle
         style="fill:#000000;fill-opacity:1;stroke-width:0.257207"
         id="circle5"
         cx="159.26144"
         cy="183.58354"
         r="14.089623" /></g><path
       style="font-size:14.1111px;line-height:0.1;font-family:Posterama1927W04-Light;-inkscape-font-specification:Posterama1927W04-Light;letter-spacing:9.30643px;word-spacing:0px;white-space:pre;inline-size:121.956;stroke-width:0.611508;opacity:1;fill:#e6e6e6;fill-opacity:1"
       d="m 183.40652,1.761156 q 0,0.377436 -0.16909,0.503262 -0.13533,0.125719 -0.50726,0.125719 h -6.86482 q -0.33819,0 -0.33819,0.314533 v 19.060841 q 0,0.377436 -0.16905,0.503239 -0.13533,0.125933 -0.50725,0.125933 h -0.84545 q -0.37198,0 -0.54106,-0.125933 -0.13533,-0.125719 -0.13533,-0.503239 V 2.70467 q 0,-0.314533 -0.33816,-0.314533 h -6.86484 q -0.37198,0 -0.54106,-0.125719 -0.13533,-0.125932 -0.13533,-0.503262 V 1.006264 q 0,-0.377434 0.13533,-0.503262 0.16906,-0.125719 0.54106,-0.125719 h 16.60409 q 0.37199,0 0.50726,0.125719 0.16909,0.125933 0.16909,0.503262 z m 28.1867,20.004442 q 0,0.377435 -0.16906,0.503239 -0.13534,0.125933 -0.50726,0.125933 h -0.84543 q -0.37198,0 -0.54106,-0.125933 -0.13533,-0.125719 -0.13533,-0.503239 V 1.006264 q 0,-0.377434 0.13533,-0.503262 0.16906,-0.125719 0.54106,-0.125719 h 0.84543 q 0.37199,0 0.50726,0.125719 0.16906,0.125933 0.16906,0.503262 z m 41.47672,-1.38396 q 0.37198,0 0.50725,0.125719 0.1692,0.125933 0.1692,0.503262 v 0.754892 q 0,0.377436 -0.1692,0.503239 -0.13518,0.125933 -0.50725,0.125933 H 240.9297 q -0.37202,0 -0.54108,-0.125933 -0.13518,-0.125719 -0.13518,-0.503239 V 1.006174 q 0,-0.377434 0.13518,-0.50326 0.16895,-0.125719 0.54108,-0.125719 h 12.10643 q 0.37197,0 0.50725,0.125719 0.16896,0.125932 0.16896,0.50326 v 0.754894 q 0,0.377434 -0.16896,0.503262 -0.13548,0.125719 -0.50725,0.125719 h -10.24651 q -0.33818,0 -0.33818,0.314534 v 7.297227 q 0,0.314533 0.33818,0.314533 h 9.09673 q 0.372,0 0.50725,0.125719 0.16919,0.125932 0.16919,0.503262 v 0.723419 q 0,0.377458 -0.16919,0.503262 -0.13518,0.125933 -0.50725,0.125933 h -9.09673 q -0.33818,0 -0.33818,0.314534 v 7.454483 q 0,0.314532 0.33818,0.314532 z M 297.59015,1.006264 q 0,-0.377434 0.13518,-0.503262 0.16919,-0.125719 0.54106,-0.125719 h 0.84545 q 0.37198,0 0.50725,0.125719 0.16896,0.125933 0.16896,0.503262 v 20.759334 q 0,0.503239 -0.16896,0.723418 -0.16918,0.220225 -0.47344,0.220225 -0.27054,0 -0.54108,-0.188795 -0.23676,-0.188797 -0.71015,-0.754871 L 283.4208,4.623405 v 17.14217 q 0,0.377435 -0.1692,0.503239 -0.13518,0.125933 -0.50723,0.125933 h -0.84543 q -0.37198,0 -0.54108,-0.125933 -0.13517,-0.125719 -0.13517,-0.503239 V 1.006241 q 0,-0.503262 0.16895,-0.723418 0.16919,-0.220225 0.47345,-0.220225 0.27054,0 0.50724,0.188796 0.27052,0.188795 0.74398,0.754892 l 14.47361,17.142172 z m 30.85827,0 q 0,-0.377434 0.13518,-0.503262 0.16922,-0.125719 0.54109,-0.125719 h 6.42522 q 3.85513,0 6.72955,1.352508 2.87442,1.321033 4.43001,3.774417 1.55557,2.421911 1.55557,5.630188 0,3.396961 -1.62321,5.944698 -1.58938,2.547738 -4.56527,3.931696 -2.97588,1.383958 -6.93246,1.383958 h -6.01941 q -0.37198,0 -0.54107,-0.125932 -0.13518,-0.125719 -0.13518,-0.503239 z m 2.53627,1.383959 q -0.33817,0 -0.33817,0.314532 v 17.362351 q 0,0.314532 0.33817,0.314532 h 4.26092 q 3.34787,0 5.74888,-1.100875 2.401,-1.100877 3.68602,-3.145353 1.28506,-2.075927 1.28506,-4.875295 0,-2.673542 -1.28506,-4.655115 -1.25121,-2.013025 -3.65221,-3.1139 -2.40101,-1.100877 -5.64744,-1.100877 z m 57.4721,12.549957 q -0.10131,-0.220224 -0.23678,-0.283082 -0.10131,-0.09429 -0.372,-0.09429 h -9.73925 q -0.27054,0 -0.40583,0.09429 -0.10131,0.06286 -0.20298,0.283082 l -3.21262,6.542335 q -0.27053,0.566165 -0.50723,0.754871 -0.23677,0.157367 -0.74398,0.157367 h -0.60872 q -0.33816,0 -0.50725,-0.09429 -0.16896,-0.09429 -0.16896,-0.314555 0,-0.125719 0.16896,-0.503241 L 381.82851,1.541129 Q 382.09904,0.974965 382.30193,0.59753 382.5387,0.220073 382.67391,0.125719 382.80909,0 383.0121,0 q 0.16896,0 0.30435,0.125719 0.13518,0.09429 0.33818,0.471811 0.23676,0.377435 0.50722,0.943599 l 9.976,19.941538 q 0.16894,0.377436 0.16894,0.503241 0,0.220223 -0.16894,0.314555 -0.16919,0.09429 -0.50727,0.09429 h -0.71015 q -0.50725,0 -0.74398,-0.157367 -0.23678,-0.188795 -0.50724,-0.754871 z m -1.5894,-2.327557 q 0.1692,0 0.23677,-0.03143 0.10131,-0.03143 0.10131,-0.125933 0,-0.09429 -0.10131,-0.283081 l -4.12567,-8.366631 -4.12564,8.366631 q -0.10131,0.188795 -0.10131,0.283081 0,0.09429 0.0676,0.125933 0.10131,0.03143 0.27054,0.03143 z"
       id="text894"
       inkscape:label="Tienda"
       aria-label="TIENDA" /></g></svg>
